<mxfile host="app.diagrams.net" modified="2024-04-07T11:24:54.269Z" agent="Mozilla/5.0 (Windows NT 10.0; Win64; x64) AppleWebKit/537.36 (KHTML, like Gecko) Chrome/123.0.0.0 Safari/537.36 Edg/123.0.0.0" etag="1W8Y01WXJlPlDXtueG5F" version="24.0.1" type="device">
  <diagram id="C5RBs43oDa-KdzZeNtuy" name="Page-1">
    <mxGraphModel dx="2404" dy="1070" grid="0" gridSize="10" guides="0" tooltips="1" connect="1" arrows="1" fold="1" page="0" pageScale="1" pageWidth="827" pageHeight="1169" math="0" shadow="0">
      <root>
        <mxCell id="WIyWlLk6GJQsqaUBKTNV-0" />
        <mxCell id="WIyWlLk6GJQsqaUBKTNV-1" parent="WIyWlLk6GJQsqaUBKTNV-0" />
        <mxCell id="gn2CL7IVbaafzJpI_SOk-0" value="Client" style="rounded=1;whiteSpace=wrap;html=1;fillColor=#f8cecc;strokeColor=#b85450;" vertex="1" parent="WIyWlLk6GJQsqaUBKTNV-1">
          <mxGeometry x="-160" y="140" width="110" height="60" as="geometry" />
        </mxCell>
        <mxCell id="gn2CL7IVbaafzJpI_SOk-1" value="" style="rounded=1;whiteSpace=wrap;html=1;" vertex="1" parent="WIyWlLk6GJQsqaUBKTNV-1">
          <mxGeometry x="100" y="80" width="380" height="410" as="geometry" />
        </mxCell>
        <mxCell id="gn2CL7IVbaafzJpI_SOk-2" value="" style="rounded=1;whiteSpace=wrap;html=1;" vertex="1" parent="WIyWlLk6GJQsqaUBKTNV-1">
          <mxGeometry x="580" y="80" width="350" height="400" as="geometry" />
        </mxCell>
        <mxCell id="gn2CL7IVbaafzJpI_SOk-21" style="edgeStyle=orthogonalEdgeStyle;rounded=0;orthogonalLoop=1;jettySize=auto;html=1;" edge="1" parent="WIyWlLk6GJQsqaUBKTNV-1" source="gn2CL7IVbaafzJpI_SOk-3" target="gn2CL7IVbaafzJpI_SOk-5">
          <mxGeometry relative="1" as="geometry">
            <Array as="points">
              <mxPoint x="440" y="370" />
              <mxPoint x="440" y="370" />
            </Array>
          </mxGeometry>
        </mxCell>
        <mxCell id="gn2CL7IVbaafzJpI_SOk-34" style="edgeStyle=orthogonalEdgeStyle;rounded=0;orthogonalLoop=1;jettySize=auto;html=1;exitX=0.25;exitY=0;exitDx=0;exitDy=0;" edge="1" parent="WIyWlLk6GJQsqaUBKTNV-1" source="gn2CL7IVbaafzJpI_SOk-3" target="gn2CL7IVbaafzJpI_SOk-4">
          <mxGeometry relative="1" as="geometry">
            <Array as="points">
              <mxPoint x="165" y="250" />
              <mxPoint x="165" y="250" />
            </Array>
          </mxGeometry>
        </mxCell>
        <mxCell id="gn2CL7IVbaafzJpI_SOk-3" value="Soap Service" style="rounded=1;whiteSpace=wrap;html=1;fillColor=#dae8fc;strokeColor=#6c8ebf;" vertex="1" parent="WIyWlLk6GJQsqaUBKTNV-1">
          <mxGeometry x="130" y="340" width="140" height="110" as="geometry" />
        </mxCell>
        <mxCell id="gn2CL7IVbaafzJpI_SOk-8" style="edgeStyle=orthogonalEdgeStyle;rounded=0;orthogonalLoop=1;jettySize=auto;html=1;" edge="1" parent="WIyWlLk6GJQsqaUBKTNV-1" source="gn2CL7IVbaafzJpI_SOk-4" target="gn2CL7IVbaafzJpI_SOk-3">
          <mxGeometry relative="1" as="geometry" />
        </mxCell>
        <mxCell id="gn2CL7IVbaafzJpI_SOk-35" style="edgeStyle=orthogonalEdgeStyle;rounded=0;orthogonalLoop=1;jettySize=auto;html=1;entryX=1;entryY=0.75;entryDx=0;entryDy=0;" edge="1" parent="WIyWlLk6GJQsqaUBKTNV-1" source="gn2CL7IVbaafzJpI_SOk-4" target="gn2CL7IVbaafzJpI_SOk-0">
          <mxGeometry relative="1" as="geometry">
            <Array as="points">
              <mxPoint x="80" y="185" />
              <mxPoint x="80" y="185" />
            </Array>
          </mxGeometry>
        </mxCell>
        <mxCell id="gn2CL7IVbaafzJpI_SOk-4" value="Soap Endpoint" style="rounded=1;whiteSpace=wrap;html=1;fillColor=#dae8fc;strokeColor=#6c8ebf;" vertex="1" parent="WIyWlLk6GJQsqaUBKTNV-1">
          <mxGeometry x="130" y="120" width="140" height="100" as="geometry" />
        </mxCell>
        <mxCell id="gn2CL7IVbaafzJpI_SOk-14" value="" style="edgeStyle=orthogonalEdgeStyle;rounded=0;orthogonalLoop=1;jettySize=auto;html=1;" edge="1" parent="WIyWlLk6GJQsqaUBKTNV-1" source="gn2CL7IVbaafzJpI_SOk-5" target="gn2CL7IVbaafzJpI_SOk-13">
          <mxGeometry relative="1" as="geometry" />
        </mxCell>
        <mxCell id="gn2CL7IVbaafzJpI_SOk-23" style="edgeStyle=orthogonalEdgeStyle;rounded=0;orthogonalLoop=1;jettySize=auto;html=1;" edge="1" parent="WIyWlLk6GJQsqaUBKTNV-1" source="gn2CL7IVbaafzJpI_SOk-5" target="gn2CL7IVbaafzJpI_SOk-3">
          <mxGeometry relative="1" as="geometry">
            <Array as="points">
              <mxPoint x="600" y="430" />
              <mxPoint x="600" y="430" />
            </Array>
          </mxGeometry>
        </mxCell>
        <mxCell id="gn2CL7IVbaafzJpI_SOk-5" value="Interface" style="rounded=1;whiteSpace=wrap;html=1;fillColor=#e1d5e7;strokeColor=#9673a6;" vertex="1" parent="WIyWlLk6GJQsqaUBKTNV-1">
          <mxGeometry x="620" y="345" width="270" height="100" as="geometry" />
        </mxCell>
        <mxCell id="gn2CL7IVbaafzJpI_SOk-22" style="edgeStyle=orthogonalEdgeStyle;rounded=0;orthogonalLoop=1;jettySize=auto;html=1;entryX=0.75;entryY=0;entryDx=0;entryDy=0;" edge="1" parent="WIyWlLk6GJQsqaUBKTNV-1" source="gn2CL7IVbaafzJpI_SOk-9" target="gn2CL7IVbaafzJpI_SOk-3">
          <mxGeometry relative="1" as="geometry" />
        </mxCell>
        <mxCell id="gn2CL7IVbaafzJpI_SOk-9" value="WSDL(Deposit)" style="rounded=1;whiteSpace=wrap;html=1;fillColor=#dae8fc;strokeColor=#6c8ebf;" vertex="1" parent="WIyWlLk6GJQsqaUBKTNV-1">
          <mxGeometry x="320" y="200" width="140" height="110" as="geometry" />
        </mxCell>
        <mxCell id="gn2CL7IVbaafzJpI_SOk-18" style="edgeStyle=orthogonalEdgeStyle;rounded=0;orthogonalLoop=1;jettySize=auto;html=1;" edge="1" parent="WIyWlLk6GJQsqaUBKTNV-1" source="gn2CL7IVbaafzJpI_SOk-12" target="gn2CL7IVbaafzJpI_SOk-13">
          <mxGeometry relative="1" as="geometry" />
        </mxCell>
        <mxCell id="gn2CL7IVbaafzJpI_SOk-12" value="" style="strokeWidth=2;html=1;shape=mxgraph.flowchart.database;whiteSpace=wrap;fillColor=#ffe6cc;strokeColor=#d79b00;" vertex="1" parent="WIyWlLk6GJQsqaUBKTNV-1">
          <mxGeometry x="1040" y="170" width="90" height="130" as="geometry" />
        </mxCell>
        <mxCell id="gn2CL7IVbaafzJpI_SOk-17" value="" style="edgeStyle=orthogonalEdgeStyle;rounded=0;orthogonalLoop=1;jettySize=auto;html=1;" edge="1" parent="WIyWlLk6GJQsqaUBKTNV-1" source="gn2CL7IVbaafzJpI_SOk-13" target="gn2CL7IVbaafzJpI_SOk-12">
          <mxGeometry relative="1" as="geometry" />
        </mxCell>
        <mxCell id="gn2CL7IVbaafzJpI_SOk-20" style="edgeStyle=orthogonalEdgeStyle;rounded=0;orthogonalLoop=1;jettySize=auto;html=1;" edge="1" parent="WIyWlLk6GJQsqaUBKTNV-1" source="gn2CL7IVbaafzJpI_SOk-13" target="gn2CL7IVbaafzJpI_SOk-5">
          <mxGeometry relative="1" as="geometry" />
        </mxCell>
        <mxCell id="gn2CL7IVbaafzJpI_SOk-13" value="DAO Service" style="rounded=1;whiteSpace=wrap;html=1;fillColor=#e1d5e7;strokeColor=#9673a6;" vertex="1" parent="WIyWlLk6GJQsqaUBKTNV-1">
          <mxGeometry x="620" y="120" width="270" height="100" as="geometry" />
        </mxCell>
        <mxCell id="gn2CL7IVbaafzJpI_SOk-24" value="DB" style="text;html=1;align=center;verticalAlign=middle;whiteSpace=wrap;rounded=0;" vertex="1" parent="WIyWlLk6GJQsqaUBKTNV-1">
          <mxGeometry x="1055" y="315" width="60" height="30" as="geometry" />
        </mxCell>
        <mxCell id="gn2CL7IVbaafzJpI_SOk-25" value="Web Service(SOAP)" style="text;html=1;align=center;verticalAlign=middle;whiteSpace=wrap;rounded=0;" vertex="1" parent="WIyWlLk6GJQsqaUBKTNV-1">
          <mxGeometry x="205" y="510" width="170" height="30" as="geometry" />
        </mxCell>
        <mxCell id="gn2CL7IVbaafzJpI_SOk-26" value="DAO Layer" style="text;html=1;align=center;verticalAlign=middle;whiteSpace=wrap;rounded=0;" vertex="1" parent="WIyWlLk6GJQsqaUBKTNV-1">
          <mxGeometry x="680" y="510" width="150" height="30" as="geometry" />
        </mxCell>
        <mxCell id="gn2CL7IVbaafzJpI_SOk-31" style="edgeStyle=orthogonalEdgeStyle;rounded=0;orthogonalLoop=1;jettySize=auto;html=1;entryX=-0.008;entryY=0.218;entryDx=0;entryDy=0;entryPerimeter=0;" edge="1" parent="WIyWlLk6GJQsqaUBKTNV-1" source="gn2CL7IVbaafzJpI_SOk-0" target="gn2CL7IVbaafzJpI_SOk-1">
          <mxGeometry relative="1" as="geometry" />
        </mxCell>
        <mxCell id="gn2CL7IVbaafzJpI_SOk-33" value="Request(XML)" style="text;html=1;align=center;verticalAlign=middle;whiteSpace=wrap;rounded=0;" vertex="1" parent="WIyWlLk6GJQsqaUBKTNV-1">
          <mxGeometry x="-10" y="130" width="60" height="30" as="geometry" />
        </mxCell>
        <mxCell id="gn2CL7IVbaafzJpI_SOk-36" value="Response(XML)" style="text;html=1;align=center;verticalAlign=middle;whiteSpace=wrap;rounded=0;" vertex="1" parent="WIyWlLk6GJQsqaUBKTNV-1">
          <mxGeometry x="-10" y="190" width="60" height="30" as="geometry" />
        </mxCell>
      </root>
    </mxGraphModel>
  </diagram>
</mxfile>
